<svg width="32" height="32" viewBox="0 0 32 32" fill="none" xmlns="http://www.w3.org/2000/svg">
<path d="M21.8954 11.4573C22.4375 10.5532 23.4143 10 24.4684 10H26.4981C28.8296 10 30.27 12.5432 29.071 14.5427L24.8738 21.5427C24.3317 22.4468 23.355 23 22.3009 23H20.2711C17.9396 23 16.4992 20.4568 17.6982 18.4573L21.8954 11.4573Z" fill="#955CFF"/>
<path d="M13.7443 11.3673C14.2529 10.5191 15.1693 10 16.1584 10V10C18.346 10 19.6974 12.3862 18.5725 14.2623L14.1532 21.6327C13.6446 22.4809 12.7281 23 11.7391 23V23C9.55148 23 8.19999 20.6138 9.32495 18.7377L13.7443 11.3673Z" fill="#FF9736"/>
<path d="M7.38511 11.0255C7.76657 10.3893 8.45392 10 9.1957 10V10C10.8364 10 11.85 11.7896 11.0063 13.1968L5.74309 21.9745C5.36163 22.6107 4.67428 23 3.9325 23V23C2.29182 23 1.2782 21.2104 2.12192 19.8032L7.38511 11.0255Z" fill="#75F1F1"/>
</svg>
