<svg width="88" height="82" viewBox="0 0 88 82" fill="none" xmlns="http://www.w3.org/2000/svg">
<circle cx="70" cy="44" r="18" fill="#75F1F1"/>
<path d="M70.6667 47.5832V52.5418C70.6667 61.7293 65.4167 65.6668 57.5417 65.6668H31.2917C23.4167 65.6668 18.1667 61.7293 18.1667 52.5418V36.7917C18.1667 27.6042 23.4167 23.6667 31.2917 23.6667H39.1667C38.7876 24.775 38.5834 26 38.5834 27.3125V38.6876C38.5834 41.5168 39.5167 43.9084 41.1792 45.5709C42.8417 47.2334 45.2334 48.1668 48.0626 48.1668V52.221C48.0626 53.7085 49.7542 54.6124 51.0084 53.7957L59.4376 48.1668H67.0209C68.3334 48.1668 69.5584 47.9624 70.6667 47.5832Z" stroke="#5313CA" stroke-width="4" stroke-miterlimit="10" stroke-linecap="round" stroke-linejoin="round"/>
<path d="M76.5 27.3125V38.6876C76.5 43.0334 74.2834 46.2998 70.6667 47.5832C69.5584 47.9623 68.3334 48.1667 67.0209 48.1667H59.4375L51.0084 53.7957C49.7542 54.6124 48.0625 53.7084 48.0625 52.2209V48.1667C45.2334 48.1667 42.8417 47.2333 41.1792 45.5708C39.5167 43.9083 38.5834 41.5167 38.5834 38.6876V27.3125C38.5834 26 38.7875 24.775 39.1667 23.6666C40.45 20.05 43.7167 17.8333 48.0625 17.8333H67.0209C72.7084 17.8333 76.5 21.625 76.5 27.3125Z" stroke="#5313CA" stroke-width="4" stroke-miterlimit="10" stroke-linecap="round" stroke-linejoin="round"/>
<path d="M33.9167 76.1666H54.9167" stroke="#5313CA" stroke-width="4" stroke-miterlimit="10" stroke-linecap="round" stroke-linejoin="round"/>
<path d="M44.4167 65.6667V76.1667" stroke="#5313CA" stroke-width="4" stroke-miterlimit="10" stroke-linecap="round" stroke-linejoin="round"/>
<path d="M66.2786 33.1458H66.3048" stroke="#5313CA" stroke-width="4" stroke-linecap="round" stroke-linejoin="round"/>
<path d="M58.1124 33.1458H58.1387" stroke="#5313CA" stroke-width="4" stroke-linecap="round" stroke-linejoin="round"/>
<path d="M49.945 33.1458H49.9712" stroke="#5313CA" stroke-width="4" stroke-linecap="round" stroke-linejoin="round"/>
</svg>
